<svg viewBox="0 0 267 267" xmlns="http://www.w3.org/2000/svg" xml:space="preserve" fill-rule="evenodd" clip-rule="evenodd" stroke-linejoin="round" stroke-miterlimit="2">
  <path fill="#fff" d="M0 0h266.667v266.667H0z"/>
  <path d="M183.148 76.99v13.549h-12.719V76.99h12.719Zm-.53 10.207V81.75l-4.979-4.23h-4.825v1.248l9.804 8.429Zm0-6.142V77.52h-4.161l4.161 3.535Zm-10.334-3.535h-.922l.922.793v-.793Zm-1.325.353v.972h1.131l-1.131-.972Zm0 1.502v4.133h6.555l-4.808-4.133h-1.747Zm0 4.663v5.971h11.659v-2.113l-4.487-3.858h-7.172Zm-46.317-23.6V46.465h13.143v4.664l.174.2-.174.151v8.958h-13.143Zm12.613-9.2v-4.243h-12.083v1.325h8.585l-8.585 7.437v4.151h2.099l9.984-8.67Zm-9.176 8.67h9.176V51.94l-9.176 7.968Zm-2.907-11.058v6.206l7.164-6.206h-7.164Zm29.995 26.85V61.922h13.142V75.7h-13.142Zm12.613-1.26v-5.286l-7.902-6.702h-4.181v1.6L167.78 74.44Zm0-5.981v-6.007h-7.083l7.083 6.007Zm-12.083-3.708V75.17h12.083v-.031l-12.083-10.388Zm44.833 40.202v-12.93h13.566v12.93H200.53Zm.53-1.201v.671h.781l-.781-.671Zm1.594.671h6.648l-8.242-7.003v5.633l1.594 1.37Zm7.308 0h3.605v-11.87H201.06v4.172l8.968 7.62-.066.078Zm-70.057-43.985V46.465h13.142v13.973h-13.142Zm.53-8.809v8.279h9.629l-9.629-8.279Zm10.442 8.279h1.64v-3.733l-7.79-6.619v-1.66h7.79v-.901h-12.082v3.935l10.442 8.978Zm1.64-4.429v-7.053h-7.26v.884l7.26 6.169Zm-74.51 49.474H63.169V92.447h14.838v12.506Zm-9.526-.53h7.299l-.066-.076 1.763-1.537v-9.834H65.403v11.437h2.273l9.676-8.521v.719l-8.871 7.812Zm7.952 0h1.044v-.91l-1.044.91ZM64.865 92.976h-1.166v11.447h1.166V92.976Zm34.764-17.258H69.104v-1.272l6.784-5.723h2.119v6.465h1.272v-9.221l4.664-4.239h8.055v13.46h2.12V61.922h13.142V75.7h-7.631v.018Zm-22.152-.53v-2.98l-3.531 2.98h3.531Zm0-3.673v-2.262h-1.396l-6.447 5.439v.496h3.49l4.353-3.673Zm13.991 3.673v-12.93h-2.197l-9.462 7.983v4.947h11.659Zm-3.019-12.93h-4.301l-4.339 3.944v3.346l8.64-7.29Zm11.18 12.912h2.032l1.095-.933V62.452h-3.127V75.17Zm2.849 0h.278v-.237l-.278.237Zm.808 0h3.444v-3.627l-3.444 2.938v.689Zm3.444-4.323v-8.395h-3.444v11.333l3.444-2.938Zm-7.631-8.395h-4.451V75.17h4.451V62.452ZM77.583 79.799v10.757h-13.99V79.958l2.968-2.968h11.022v2.279h1.696V76.99h13.143v2.279h1.696V76.99h13.142v13.549H94.118v-10.74h-1.696v10.74H79.279v-10.74h-1.696Zm-.529-.53V77.52h-7.261v1.749h7.261Zm-7.791-1.749H66.78l-2.657 2.657v9.849h.742V83.34h12.189v-3.541h-7.791V77.52Zm-3.86 12.506h11.651v-6.145H65.403v6.145Zm26.489-10.757V77.52H79.809v1.749h12.083Zm2.756.53v1.412l1.632-1.412h-1.632Zm0 1.977v6.069l4.976-4.337h7.106v-4.133h-2.278V77.52h-4.728l-5.009 4.334-.067-.078Zm0 6.772v1.461h12.082v-5.971h-6.907l-5.175 4.51Zm12.082-9.703v-.397l-.456.397h.456Zm0-1.099v-.226h-1.749v1.325h.484l1.265-1.099Zm-7.816-.226h-4.266v1.749h2.245l2.021-1.749Zm-7.022 5.82v-3.541H79.809v3.541h12.083Zm-12.083.541v6.128h4.224l6.959-6.128H79.809Zm5.04 6.128h7.043v-6.202l-7.043 6.202ZM206.521 74.87h-5.991v-8.055l10.175 8.055h-4.135l-.021.024-.028-.024Zm.196-.53h2.465l-8.122-6.43v1.571l5.657 4.859Zm-5.657-4.16v4.16h4.844l-4.844-4.16Zm13.884 36.063h14.839v13.778h-14.839m-1.801-8.956v-4.292h-7.757l4.993 4.292h2.764Zm-8.566-4.292h-3.093v12.718h11.659v-7.896h-2.96l-5.607-4.82.001-.002Zm10.897 4.822v7.896h13.779v-7.896h-13.779Zm13.779-.53v-4.292h-13.779v4.292h13.779Zm-76.206-20.526h-13.142V76.99h13.142m-.53 1.855V77.52h-12.082v1.325h12.082Zm-12.082.53v4.133h12.082v-4.133h-12.082Zm0 4.663v5.971h12.082v-5.971h-12.082Zm15.262-4.663v4.133h12.083v-4.133h-12.083Zm0 4.663v5.971h12.083v-5.971h-12.083Zm12.083-5.193V77.52h-12.083v1.325h12.083ZM26.444 197.234H0v-.53h19.237v-76.312h6.359v-9.645l-.483.424h-3.491l-.174-.465L139.479 7.96l121 103.169-.172.466h-12.983v-6.783h-15.686V92.676l.442-.196 13.067 11.802h2.707v6.783h8.769L139.483 10.78 26.126 110.282v1.631h41.179l5.511-5.087h5.714l52.146 44.939h15.684l48.501 40.417-.422 35.046h40.59v-31.372H246.9v-83.943h3.921v146.264h15.846v.53H109.115v-5.935h-7.631v-5.512h-8.055v-5.935h-7.631v-7.207h-7.632v-6.36H26.444v-30.524Zm-6.677-27.133v1.166h14.732v-1.166H19.767Zm237.671-59.036h2.15L139.482 8.659 22.33 110.641h2.583L139.478 10.079l117.96 100.986ZM19.767 189.603v7.101h14.732v-7.101H19.767Zm0-10.175v7.949h6.253v-7.949h-6.253Zm230.524 48.33H78.696v5.83h7.632v7.207h7.631v5.935h8.055v5.512h7.631v5.935h140.646v-30.419ZM26.55 152.613h7.949v-7.102H26.55v7.102Zm-6.783-7.102v7.102h6.253v-7.102h-6.253Zm0 26.285v7.102h14.732v-7.102H19.767Zm0 16.111v1.166h14.732v-1.166H19.767Zm14.732-52.253v-7.101H26.55v7.101h7.949Zm.53-1.589v62.639h21.94v-62.639h-21.94ZM19.767 162.47v7.101h6.253v-7.101h-6.253Zm0-33.917v7.101h6.253v-7.101h-6.253Zm7.207 93.27v5.405h32.538v-5.405H26.974Zm0-5.935v5.405h32.538v-5.405H26.974Zm214.777-111.606h2.605l-12.189-11.009v2.832l9.584 8.177Zm-9.584-7.48v7.48h8.768l-8.768-7.48ZM26.974 197.234v5.405h32.538v-5.405H26.974Zm-7.207-42.396v7.102h14.732v-7.102H19.767Zm7.207 48.331v6.253h32.538v-6.253H26.974Zm0 6.783v5.406h32.538v-5.406H26.974Zm-.424-40.381h7.949v-7.101H26.55v7.101Zm167.359 57.657.419-34.8-48.16-40.133h-15.689l-52.146-44.939h-5.309l-5.512 5.087h-7.47v114.785h133.867Zm-159.41-99.205v-7.101H19.767v7.101h14.732Zm-14.732 8.161v1.166h14.732v-1.166H19.767Zm0 1.696v7.101h14.732v-7.101H19.767Zm10.493-25.437h-4.134v7.525h4.134v-7.525Zm205.299 114.785h14.732V112.443h-2.861v83.943h-11.871v30.842ZM30.79 120.392h4.239v13.143h22.47v63.169h2.013v-84.261H30.79v7.949Zm-11.023 32.751v1.165h14.732v-1.165H19.767Zm6.783 34.234h7.949v-7.949H26.55v7.949Zm9.486-79.862v-1.272l24.165-20.35v21.622H36.036Zm.53-.53h23.105V87.032l-23.105 19.457v.496Zm146.582 61.155v11.447h-1.272l-12.719-11.447h13.991Zm-.53.53h-12.08l11.541 10.387h.539V168.67Zm17.064 11.341h-3.392V168.14h3.392v11.871Zm-.53-.53V168.67h-2.332v10.811h2.332Zm-2.862 2.225h3.392v10.599h-1.696l-1.696-1.272v-9.327Zm.53.53v8.532l1.343 1.007h.989v-9.539h-2.332Zm-1.801-.53v8.479l-9.751-8.479h9.751Zm-.53.53h-7.804l7.804 6.786v-6.786Zm5.193 11.341v31.373h-3.392v-31.373h3.392Zm-.53.53h-2.332v30.313h2.332v-30.313Zm32.327-26.815h3.391v12.295h-3.391v-12.295Zm.529.53v11.235h2.332v-11.235h-2.332Zm-.106 13.884h2.12v13.143h-2.12v-13.143Zm.53.53v12.083h1.06v-12.083h-1.06Zm-.53 13.885h2.12v28.829h-2.12v-28.829Zm.53.53v27.769h1.06v-27.769h-1.06Zm-.953-30.631v-5.935h2.119l1.272 1.696v4.239h-3.391Zm.529-.53h2.332v-3.533l-1.007-1.342h-1.325v4.875Zm-79.385-14.308v2.967h-2.967v-2.967h2.967Zm-.53.53h-1.908v1.907h1.908v-1.907Zm2.226-.53h13.567v14.414h-2.12l-11.447-10.175v-4.239Zm.53.53v3.471l11.118 9.883h1.389v-13.354h-12.507Zm15.315-.53h12.825v14.838h-12.825v-14.838Zm.53.53v13.778h11.765v-13.778h-11.765Zm25.596 14.308v-3.815l1.272-1.696h1.696v5.511h-2.968Zm.53-.53h1.908v-4.451h-.901l-1.007 1.342v3.109Zm3.71-14.308h9.327l-9.327 6.359v-6.359Zm.53.53v4.826l7.079-4.826h-7.079Zm-16.216-.53h14.414v7.631l-4.239 1.696v5.511h-10.175v-14.838Zm.53.53v13.778h9.115v-5.34l4.239-1.696v-6.742h-13.354Zm28.298-.954v11.871H200.53v-2.968l13.142-8.903Zm-.529.999-12.083 8.185v2.157h12.083v-10.342Zm4.769-.999h11.447v6.783l-11.447-6.783Zm1.934.53 8.983 5.323v-5.323h-8.983ZM104.293 44.346l3.391-2.968v2.968h-3.391Zm1.41-.53h1.451v-1.27l-1.451 1.27Zm32.082-14.733h-13.143v-2.967l11.023-9.751h2.12v12.718Zm-.53-9.601v-2.587h-1.389l-10.694 9.459v2.199h1.882l10.201-9.071Zm-9.404 9.071h9.404v-8.362l-9.404 8.362Zm12.478.53V16.365h2.119l11.023 10.174v2.544h-13.142Zm12.396-.53h.216v-1.782l-10.7-9.876h-1.382v1.048l.071-.079 11.795 10.689Zm-11.866-10.039v10.039h11.077l-11.077-10.039Zm-33.175 41.942H94.542v-6.784l7.631-7.207h5.511v13.991Zm-1.367-13.461h-3.934l-7.311 6.906v2.769l4.557-3.845v7.101h3.127v-9.764l3.561-3.167Zm-3.031 12.931h3.868V46.995h-.04l-3.828 3.405v9.526Zm-8.214-2.563v2.563h4.027v-5.961l-4.027 3.398Zm-1.802 48.88v11.87l-13.567-11.87H93.27Zm-.53.53H81.114l11.626 10.173v-10.173Zm31.902 14.732h13.143v13.99h-13.143v-13.99Zm.53.53v12.931h12.083v-12.931h-12.083Zm13.885-.53h13.99v13.99h-13.99v-13.99Zm.53.53v12.931h12.93v-12.931h-12.93Zm15.58-.53h12.719v13.99h-12.719v-13.99Zm.53.53v12.931h11.659v-12.931h-11.659Zm14.732-.53h12.719v13.99h-12.719v-13.99Zm.53.53v12.931h11.659v-12.931h-11.659Zm13.885-.53h14.838v13.99h-14.838v-13.99Zm.53.53v12.931h13.778v-12.931h-13.778Zm15.156-.53h13.142v13.99H200.53v-13.99Zm.53.53v12.931h12.083v-12.931H201.06Zm13.46-.53h15.263v13.99H214.52v-13.99Zm.53.53v12.931h14.203v-12.931H215.05Zm16.852-.53h13.143v13.99h-13.143v-13.99Zm.53.53v12.931h12.083v-12.931h-12.083Zm-.53-15.792h13.143v13.778h-13.143v-13.778Zm12.613 4.822v-4.292h-12.083v4.292h12.083Zm-12.083.53v7.896h12.083v-7.896h-12.083Zm-123.052 9.91h13.143v13.99h-8.903l-4.24-3.815v-10.175Zm.53.53v9.409l3.913 3.522h8.17v-12.931H109.91Zm74.934-15.792h14.838v13.778h-14.838v-13.778Zm.53.53v12.718h13.778v-12.718h-13.778Zm-14.945-.53h12.719v13.778h-12.719v-13.778Zm.53.53v12.718h11.659v-12.718h-11.659Zm-15.792-.53h12.719v13.778h-12.719v-13.778Zm.53.53v12.718h11.659v-12.718h-11.659Zm-15.792-.53h13.142v13.778h-13.142v-13.778Zm.53.53v12.718h12.082v-12.718h-12.082Zm-15.793-.53h13.143v13.778h-13.143v-13.778Zm.53.53v12.718h12.083v-12.718h-12.083Zm-15.792-.53h13.143v13.778H109.38v-13.778Zm.53.53v12.718h12.083v-12.718H109.91Zm-15.368-.53h12.718v13.778H94.542v-13.778Zm.53.53v12.718h11.658v-12.718H95.072Zm-15.793-14.75h13.143v12.93H79.279v-12.93Zm1.865.53h-1.335v1.175l1.335-1.175Zm8.103 0h-7.286l-2.152 1.894v6.331l9.438-8.225Zm-9.438 8.79v3.08h12.083v-11.87h-1.839l-10.176 8.868-.068-.078Zm14.309-9.32h13.142v12.93H94.118v-12.93Zm.53.53v11.87h12.082v-11.87H94.648Zm14.732-.53h13.143v12.93H109.38v-12.93Zm.53.53v11.87h12.083v-11.87H109.91Zm14.732-.53h13.143v12.93h-13.143v-12.93Zm.53.53v11.87h12.083v-11.87h-12.083Zm14.733-.53h13.142v12.93h-13.142v-12.93Zm.53.53v11.87h12.082v-11.87h-12.082Zm14.732-.53h13.142v12.93h-13.142v-12.93Zm.53.53v11.87h12.083v-11.87h-12.083Zm14.732-.53h12.719v12.93h-12.719v-12.93Zm.53.53v11.87h11.659v-11.87h-11.659Zm14.309-.53h13.99v12.93h-13.99v-12.93Zm2.779.53h-2.249v11.87h12.93v-2.676l-10.686-9.188.005-.006Zm10.681 8.495v-5.609l-3.397-2.886h-6.484l9.881 8.495Zm0-6.305v-2.19h-2.578l2.578 2.19Zm16.64-2.72h14.415v12.93h-14.415v-12.93Zm.53.53v11.87h13.355v-11.87h-13.355ZM200.53 76.99h13.142v13.549H200.53V76.99Zm9.486.53h-8.956v1.749h8.956V77.52Zm3.127 5.988V77.52h-2.597v1.749h1.431v.53H201.06v3.709h12.083Zm-12.083.53v5.971h12.083v-5.971H201.06Zm-1.802-8.744h-13.99v-13.99h10.175l3.815 3.815v10.175Zm-7.722-13.46h-5.738v12.93h12.93v-6.587l-7.274-6.248.082-.095Zm7.192 5.644v-2.139l-3.505-3.505h-3.066l6.571 5.644Zm-13.46 9.512h13.99v13.549h-13.99V76.99Zm.53 2.809v3.709h12.93v-3.709h-12.93Zm12.93-.53V77.52h-12.93v1.749h12.93Zm-5.572 10.74h5.572v-5.971h-12.599l7.027 5.971Zm-7.358-5.557v5.557h6.54l-6.54-5.557Zm-61.156-7.462h13.143v13.549h-13.143V76.99Zm.53 2.385v4.133h12.083v-4.133h-12.083Zm12.083-.53V77.52h-12.083v1.325h12.083Zm-12.083 5.193v5.971h12.083v-5.971h-12.083ZM109.38 76.99h13.143v13.549H109.38V76.99Zm12.613 1.855V77.52H109.91v1.325h12.083Zm0 4.663v-4.133H109.91v4.133h12.083Zm-12.083.53v5.971h12.083v-5.971H109.91Zm-.53-22.116h13.143V75.7H109.38V61.922Zm7.192.53h-6.662v5.683l6.662-5.683Zm5.421 2.04v-2.04h-4.604l-7.479 6.379v6.154l12.083-10.493ZM110.505 75.17h11.488v-9.976l-11.488 9.976Zm14.137-13.248h13.143V75.7h-13.143V61.922Zm.53.53V75.17h12.083V62.452h-12.083Zm14.733-.53h13.142V75.7h-13.142V61.922Zm.53.53V75.17h12.082V62.452h-12.082Zm29.994-.53h13.143V75.7h-13.143V61.922Zm4.871.53h-4.341v8.704l4.341 3.682V62.452Zm4.191 0h-3.661V75.17h3.661V62.452Zm.53 12.718h3.021V62.452h-3.021V75.17Zm-9.062-3.319v3.319h3.914l-3.914-3.319Zm-15.792-25.386h13.142v13.973h-13.142V46.465Zm.53 1.961v9.755l2.033 1.727h10.05V48.426h-12.083Zm12.083-.53v-.901h-12.083v.901h12.083Zm-12.083 10.98v1.032h1.214l-1.214-1.032ZM109.38 46.465h13.143v13.973H109.38V46.465Zm12.613 1.855v-1.325H109.91v1.325h12.083Zm0 9.642V48.85H109.91v11.058h9.645l2.372-2.023.066.077Zm-1.622 1.946h1.622v-1.383l-1.622 1.383Zm4.271-28.511h13.143v12.931h-13.143V31.397Zm.53.53v11.871h12.083V31.927h-12.083Zm14.733-.53h13.142v12.931h-13.142V31.397Zm.53.53v11.871h12.082V31.927h-12.082Zm-17.912-.53v12.931h-12.719v-5.07l8.903-7.861h3.816Zm-.53 1.657v-1.127h-3.086l-8.573 7.57v3.926l11.659-10.369Zm-11.284 10.744h11.284V33.764l-11.284 10.034Zm44.882.53V31.397h4.663l8.055 7.861v5.07h-12.718Zm12.189-2.132v-2.715l-7.741-7.554h-3.591l11.332 10.269Zm-11.659-9.85v11.452h11.659v-1.031l-.072.079-11.587-10.5Zm14.308 27.262V46.465h6.784l6.359 5.512v7.631h-13.143Zm12.613-6.624v-.765l-6.027-5.224h-6.056v.901h4.871v11.182h3.661v-6.094h3.551Zm-3.021 6.094h3.021v-5.564h-3.021v5.564Zm-9.062-10.652v10.652h4.341V48.426h-4.341Zm21.516 11.182h-7.207v-6.474l7.207 6.474Zm-1.383-.53-5.294-4.756v4.756h5.294Zm-16.423-14.75h-4.24V40.53l4.24 3.798Zm-1.386-.53-2.324-2.082v2.082h2.324Zm-75.35 77.707h10.175v9.327l-10.175-9.327Zm1.363.53 8.282 7.592v-7.592h-8.282Zm38.33 27.716h-7.146l-6.103-5.231v-6.746h13.249v11.977Zm-.53-11.447h-12.189v5.973l5.769 4.944h6.42v-10.917Zm-14.573-.689v5.724l-6.36-5.724h6.36Zm-.53.53h-4.449l4.449 4.004v-4.004Zm30.895-.371v11.977h-13.672v-11.977h13.672Zm-13.142.53v10.917h12.612v-10.917h-12.612Zm27.981-.53v11.977h-12.825v-11.977h12.825Zm-12.295.53v10.917h11.765v-10.917h-11.765Zm43.667-1.378v12.825h-14.52v-12.825h14.52Zm-13.99.53v11.765h13.46v-11.765h-13.46Zm28.405-.53v12.825h-12.825v-12.825h12.825Zm-12.295.53v11.765h11.765v-11.765h-11.765Zm28.405-.53v12.825h-14.521v-12.825h14.521Zm-13.991.53v11.765h13.461v-11.765h-13.461Zm29.253-.53v12.825h-12.825v-12.825h12.825Zm-12.295.53v11.765h11.765v-11.765h-11.765Zm-140.169-77h-6.359l6.359-5.936v5.936Zm-.53-.53V55.74l-4.485 4.186h4.485Zm123.476 90.832 13.991 8.479v3.392h-13.991v-11.871Zm.53.941v10.4h12.931v-2.564l-12.931-7.836Zm15.581-.941h13.99v15.262h-9.327v-5.511l-1.696-1.696h-2.967v-8.055Zm.529.53v6.995h2.658l2.006 2.006v5.201h8.267v-14.202h-12.931Zm4.134 16.004h9.751v12.295h-9.751v-12.295Zm.53.53v11.235h8.691v-11.235h-8.691Zm-.954 13.884h10.175v12.719h-10.175v-12.719Zm.53.53v11.659h9.115v-11.659h-9.115Zm-41.229-2.225H184.42V168.14h10.599v11.871Zm-.53-.53V168.67h-9.539v10.811h9.539Zm-11.5-41.707v11.977h-12.825v-11.977h12.825Zm-12.295.53v10.917h11.765v-10.917h-11.765Zm59.513-47.765h-15.263V77.838l13.407 12.171h1.856v.53Zm-5.185-.53h2.541l-12.089-10.974v2.827l9.548 8.147Zm-9.548-7.45v7.45h8.732l-8.732-7.45Zm-60.307-5.569h13.142v13.549h-13.142m58.505 29.482h-12.718v-13.778h12.718"/>
  <path fill="#e84011" d="M201.802 165.172h27.557v62.321h-27.557z"/>
</svg>
