<svg xmlns="http://www.w3.org/2000/svg" style="display:none;">
	<defs>
		<symbol id="icon-arrow-se" viewBox="0 0 64 64" fill-rule="evenodd" clip-rule="evenodd" stroke-linejoin="round" stroke-miterlimit="2">
			<path d="M48.3 54 40 45.6 18.4 24.1 3.2 8.8a4 4 0 0 1 5.6-5.6l15.3 15.2 21.5 21.5 15.2 15.3A4 4 0 0 1 58 62H6a4 4 0 0 1 0-8h42.3ZM54 6a4 4 0 0 1 8 0v32a4 4 0 0 1-8 0V6Z" fill="currentColor"/>
		</symbol>
		<symbol id="icon-star" viewBox="0 0 64 64" fill-rule="evenodd" clip-rule="evenodd" stroke-linejoin="round" stroke-miterlimit="2">
			<path d="M2 32c4.01 0 7.847-.763 11.508-2.288 3.488-1.421 6.713-3.605 9.678-6.551 2.894-2.842 5.091-6.066 6.591-9.671 1.464-3.5 2.197-7.331 2.197-11.49 0 4.055.75 7.886 2.249 11.49 1.36 3.397 3.557 6.621 6.591 9.671a29.12 29.12 0 0 0 9.678 6.551C54.119 31.237 57.955 32 62 32c-4.045 0-7.881.763-11.508 2.288a29.12 29.12 0 0 0-9.678 6.551c-3.034 3.085-5.231 6.308-6.591 9.671-1.499 3.639-2.249 7.469-2.249 11.49 0-4.125-.733-7.955-2.197-11.49-1.5-3.571-3.697-6.794-6.591-9.671-2.965-2.946-6.19-5.13-9.678-6.551A29.638 29.638 0 0 0 2 32Z" fill="currentColor" fill-rule="nonzero"/>
		</symbol>
		<symbol id="icon-arrow-left" viewBox="0 0 64 64" fill-rule="evenodd" clip-rule="evenodd" stroke-linecap="round" stroke-linejoin="round">
			<path d="m48.875 5-33.75 27 33.75 27" fill="none" stroke="currentColor" stroke-width="8"/>
		</symbol>
		<symbol id="icon-arrow-right" viewBox="0 0 64 64" fill-rule="evenodd" clip-rule="evenodd" stroke-linecap="round" stroke-linejoin="round">
			<path d="m15.125 5 33.75 27-33.75 27" fill="none" stroke="currentColor" stroke-width="8"/>
		</symbol>
		<symbol id="icon-cross" viewBox="0 0 64 64" fill-rule="evenodd" clip-rule="evenodd" stroke-linejoin="round" stroke-miterlimit="2">
 			<path d="M28 36H6.5c-2.208 0-4-1.792-4-4s1.792-4 4-4H28V6.5c0-2.208 1.792-4 4-4s4 1.792 4 4V28h21.5c2.208 0 4 1.792 4 4s-1.792 4-4 4H36v21.5c0 2.208-1.792 4-4 4s-4-1.792-4-4V36Z" fill="currentColor"/>
		</symbol>
		<symbol id="icon-download" viewBox="0 0 100 100" fill="none" stroke-width="8" stroke-dashoffset="128" stroke-linecap="round" stroke-linejoin="round" stroke="currentColor">
			<polyline fill="none" points="10,75 10,90 90,90 90,75"/> <line x1="50" y1="15" x2="50" y2="65" /> <polyline fill="none" points="30,50 50,65 70,50" />
		</symbol>
		<symbol id="icon-back-to-top" viewBox="0 0 64 64" fill-rule="evenodd" clip-rule="evenodd" stroke-linejoin="round" stroke-miterlimit="2">
  			<path d="M32 2c16.557 0 30 13.443 30 30 0 16.557-13.443 30-30 30C15.443 62 2 48.557 2 32 2 15.443 15.443 2 32 2ZM16.482 42.666 32 23.269l15.518 19.397a2.667 2.667 0 0 0 4.164-3.332l-17.6-22a2.668 2.668 0 0 0-4.164 0l-17.6 22a2.667 2.667 0 0 0 4.164 3.332Z" fill="currentColor"/>
		</symbol>
	</defs>
</svg>
