<svg xmlns="http://www.w3.org/2000/svg" style="display:none;">
	<defs>
		<symbol id="icon-arrow-se" viewBox="0 0 64 64" fill-rule="evenodd" clip-rule="evenodd" stroke-linejoin="round" stroke-miterlimit="2">
			<path d="M48.3 54 40 45.6 18.4 24.1 3.2 8.8a4 4 0 0 1 5.6-5.6l15.3 15.2 21.5 21.5 15.2 15.3A4 4 0 0 1 58 62H6a4 4 0 0 1 0-8h42.3ZM54 6a4 4 0 0 1 8 0v32a4 4 0 0 1-8 0V6Z" fill="currentColor"/>
		</symbol>
		<symbol id="icon-arrow-long-right" viewBox="0 0 40 40">
			<path d="m31.9 13.4-1.41 1.41 4.21 4.21h-33.1v2h33.1l-4.21 4.21 1.41 1.41 5.21-5.21 1.42-1.41-1.42-1.41z"/>
		</symbol>
	</defs>
</svg>
