<svg viewBox="0 0 64 64" xmlns="http://www.w3.org/2000/svg" xml:space="preserve" fill-rule="evenodd" clip-rule="evenodd" stroke-linejoin="round" stroke-miterlimit="2">
  <path d="M2 32c4.01 0 7.847-.763 11.508-2.288 3.488-1.421 6.713-3.605 9.678-6.551 2.894-2.842 5.091-6.066 6.591-9.671 1.464-3.5 2.197-7.331 2.197-11.49 0 4.055.75 7.886 2.249 11.49 1.36 3.397 3.557 6.621 6.591 9.671a29.12 29.12 0 0 0 9.678 6.551C54.119 31.237 57.955 32 62 32c-4.045 0-7.881.763-11.508 2.288a29.12 29.12 0 0 0-9.678 6.551c-3.034 3.085-5.231 6.308-6.591 9.671-1.499 3.639-2.249 7.469-2.249 11.49 0-4.125-.733-7.955-2.197-11.49-1.5-3.571-3.697-6.794-6.591-9.671-2.965-2.946-6.19-5.13-9.678-6.551A29.638 29.638 0 0 0 2 32Z" fill="currentColor" fill-rule="nonzero"/>
</svg>
