<svg viewBox="0 0 515 129" xmlns="http://www.w3.org/2000/svg" xml:space="preserve" fill-rule="evenodd" clip-rule="evenodd" stroke-linejoin="round" stroke-miterlimit="2">
	<path id="structure" d="M92.032 35.688v6.808h-6.391v-6.808h6.391Zm-.266 5.129V38.08l-2.502-2.126h-2.425v.627l4.927 4.236Zm0-3.087v-1.776h-2.091l2.091 1.776Zm-5.193-1.776h-.464l.464.398v-.398Zm-.666.177v.489h.568l-.568-.489Zm0 .755v2.077h3.294l-2.416-2.077h-.878Zm0 2.343v3.001h5.859v-1.062l-2.255-1.939h-3.604ZM62.633 27.37v-7.021h6.604v2.343l.087.101-.087.076v4.501h-6.604Zm6.338-4.623v-2.132h-6.072v.666h4.314l-4.314 3.737v2.086h1.055l5.017-4.357Zm-4.611 4.357h4.611V23.1l-4.611 4.004Zm-1.461-5.557v3.119l3.6-3.119h-3.6ZM77.971 35.04v-6.924h6.605v6.924h-6.605Zm6.338-.634V31.75l-3.97-3.368h-2.101v.804l6.071 5.22Zm0-3.005v-3.019H80.75l3.559 3.019Zm-6.071-1.864v5.236h6.071v-.016l-6.071-5.22Zm22.528 20.202v-6.497h6.817v6.497h-6.817Zm.267-.603v.337h.392l-.392-.337Zm.801.337h3.34l-4.141-3.519v2.83l.801.689Zm3.672 0h1.811v-5.965h-6.284v2.096l4.506 3.83-.033.039ZM70.302 27.37v-7.021h6.604v7.021h-6.604Zm.266-4.426v4.16h4.839l-4.839-4.16Zm5.248 4.16h.824v-1.876l-3.915-3.326v-.834h3.915v-.453h-6.072v1.978l5.248 4.511Zm.824-2.225v-3.545h-3.648v.445l3.648 3.1Zm-37.441 24.86h-7.457v-6.284h7.457v6.284Zm-4.787-.266h3.667l-.033-.038.886-.773v-4.941h-6.067v5.747h1.142l4.862-4.282v.361l-4.457 3.926Zm3.995 0h.525v-.458l-.525.458Zm-5.812-5.752h-.586v5.752h.586v-5.752Zm17.469-8.672H34.725v-.64l3.409-2.876h1.065v3.249h.639v-4.633l2.343-2.131h4.048v6.764h1.065v-6.666h6.604v6.924h-3.834v.009Zm-11.132-.267v-1.497l-1.774 1.497h1.774Zm0-1.846V31.8h-.701l-3.24 2.733v.249h1.754l2.187-1.846Zm7.031 1.846v-6.497h-1.104l-4.755 4.011v2.486h5.859Zm-1.517-6.497h-2.162l-2.18 1.982v1.681l4.342-3.663Zm5.618 6.488h1.021l.55-.469v-5.922h-1.571v6.391Zm1.431 0h.14v-.119l-.14.119Zm.406 0h1.731v-1.822l-1.731 1.476v.346Zm1.731-2.172v-4.219h-1.731v5.695l1.731-1.476Zm-3.835-4.219H47.56v6.391h2.237v-6.391Zm-10.811 8.717v5.406h-7.031v-5.326l1.492-1.491h5.539v1.145h.852v-1.145h6.604v1.145h.852v-1.145h6.604v6.808h-6.604v-5.397h-.852v5.397h-6.604v-5.397h-.852Zm-.267-.266v-.879h-3.648v.879h3.648Zm-3.914-.879h-1.248l-1.335 1.335v4.95h.373v-3.36h6.124v-1.78h-3.914v-1.145Zm-1.94 6.285h5.854V39.15h-5.854v3.089Zm13.311-5.406v-.879h-6.072v.879h6.072Zm1.384.266v.71l.821-.71h-.821Zm0 .994v3.05l2.501-2.18h3.571v-2.077h-1.145v-.932h-2.376l-2.517 2.178-.034-.039Zm0 3.403v.734h6.072v-3.001h-3.471l-2.601 2.267Zm6.072-4.876v-.2l-.23.2h.23Zm0-.552v-.114h-.879v.666h.243l.636-.552Zm-3.928-.114H47.56v.879h1.129l1.015-.879Zm-3.528 2.925v-1.78h-6.072v1.78h6.072Zm-6.072.271v3.08h2.123l3.496-3.08h-5.619Zm2.533 3.08h3.539v-3.117l-3.539 3.117Zm61.14-7.608h-3.011v-4.047l5.113 4.047h-2.078l-.01.013-.014-.013Zm.098-.266h1.239l-4.081-3.231v.789l2.842 2.442Zm-2.842-2.091v2.091h2.434l-2.434-2.091Zm6.977 18.122h7.456v6.924h-7.456m-.906-4.501v-2.157h-3.897c.663.571 2.509 2.157 2.509 2.157h1.388Zm-4.304-2.157h-1.554v6.392h5.858v-3.968h-1.487l-2.818-2.423.001-.001Zm5.476 2.424v3.968h6.924v-3.968h-6.924Zm6.924-.267v-2.157h-6.924v2.157h6.924ZM76.906 42.496h-6.604v-6.808h6.604m-.266.932v-.666h-6.072v.666h6.072Zm-6.072.266v2.077h6.072v-2.077h-6.072Zm0 2.343v3.001h6.072v-3.001h-6.072Zm7.67-2.343v2.077h6.071v-2.077h-6.071Zm0 2.343v3.001h6.071v-3.001h-6.071Zm6.071-2.609v-.666h-6.071v.666h6.071ZM13.288 96.11H0v-.266h9.667V57.497h3.195v-4.846l-.243.213h-1.754l-.088-.234L70.088 1l60.803 51.842-.087.235h-6.524v-3.409h-7.882V43.57l.222-.099 6.566 5.931h1.361v3.408h4.406C124.612 49.094 70.09 2.417 70.09 2.417l-56.962 50v.82h20.693l2.769-2.557h2.871l26.204 22.582h7.881l24.372 20.31-.212 17.611h20.396V95.418h5.965V53.237h1.971v73.497H134V127H54.83v-2.982h-3.834v-2.77h-4.048v-2.982h-3.835v-3.622h-3.834v-3.195H13.288V96.11ZM9.933 82.476v.586h7.403v-.586H9.933ZM129.362 52.81h1.081L70.09 1.351 11.221 52.597h1.298L70.088 2.065l59.274 50.745ZM9.933 92.276v3.568h7.403v-3.568H9.933Zm0-5.113v3.994h3.142v-3.994H9.933Zm115.838 24.286H39.545v2.929h3.835V118h3.834v2.982h4.048v2.77h3.835v2.982h70.674v-15.285ZM13.341 73.688h3.995V70.12h-3.995v3.568ZM9.933 70.12v3.568h3.142V70.12H9.933Zm0 13.208v3.568h7.403v-3.568H9.933Zm0 8.095v.586h7.403v-.586H9.933Zm7.403-26.256v-3.569h-3.995v3.569h3.995Zm.266-.799v31.476h11.025V64.368H17.602ZM9.933 78.641v3.569h3.142v-3.569H9.933Zm0-17.043v3.569h3.142v-3.569H9.933Zm3.621 46.868v2.717h16.351v-2.717H13.554Zm0-2.982v2.716h16.351v-2.716H13.554ZM121.48 49.402h1.309l-6.125-5.532v1.423l4.816 4.109Zm-4.816-3.759v3.759h4.406l-4.406-3.759ZM13.554 96.11v2.716h16.351V96.11H13.554ZM9.933 74.807v3.568h7.403v-3.568H9.933Zm3.621 24.286v3.142h16.351v-3.142H13.554Zm0 3.408v2.716h16.351v-2.716H13.554Zm-.213-20.291h3.995v-3.569h-3.995v3.569Zm84.098 28.973c.02-1.612.211-17.488.211-17.488L73.449 73.528h-7.883L39.362 50.946h-2.668l-2.769 2.557h-3.754v57.68h67.268ZM17.336 61.332v-3.568H9.933v3.568h7.403Zm-7.403 4.101v.586h7.403v-.586H9.933Zm0 .852v3.568h7.403v-3.568H9.933Zm5.272-12.782h-2.077v3.781h2.077v-3.781Zm103.163 57.68h7.403v-57.68h-1.438v42.181h-5.965v15.499ZM15.472 57.497h2.13v6.604h11.291v31.743h1.012V53.503H15.472v3.994ZM9.933 73.954v.586h7.403v-.586H9.933Zm3.408 17.203h3.995v-3.994h-3.995v3.994Zm4.767-40.131v-.639l12.143-10.226v10.865H18.108Zm.266-.266h11.611V40.734l-11.611 9.777v.249Zm73.658 30.731v5.752h-.639l-6.391-5.752h7.03Zm-.266.266h-6.07l5.799 5.219h.271v-5.219Zm8.574 5.699h-1.704v-5.965h1.704v5.965Zm-.266-.267v-5.432h-1.172v5.432h1.172Zm-1.438 1.119h1.704v5.326h-.852l-.852-.639v-4.687Zm.266.266v4.287l.675.506h.497v-4.793h-1.172Zm-.905-.266v4.26l-4.9-4.26h4.9Zm-.266.266h-3.922l3.922 3.41v-3.41Zm2.609 5.699v15.764h-1.704V94.273h1.704Zm-.266.266h-1.172v15.232h1.172V94.539Zm16.244-13.475h1.704v6.179h-1.704v-6.179Zm.266.267v5.645h1.172v-5.645h-1.172Zm-.053 6.977h1.065v6.604h-1.065v-6.604Zm.266.266v6.072h.533v-6.072h-.533Zm-.266 6.977h1.065v14.486h-1.065V95.551Zm.266.266v13.954h.533V95.817h-.533Zm-.479-15.392v-2.982h1.065l.639.852v2.13h-1.704Zm.266-.266h1.172v-1.775l-.506-.675h-.666v2.45Zm-39.891-7.19v1.491h-1.491v-1.491h1.491Zm-.266.266h-.959v.959h.959v-.959Zm1.118-.266h6.817v7.243h-1.065l-5.752-5.113v-2.13Zm.267.266v1.745l5.587 4.966h.697v-6.711h-6.284Zm7.696-.266h6.444v7.456h-6.444v-7.456Zm.266.266v6.924h5.912v-6.924h-5.912Zm12.862 7.19v-1.917l.639-.852h.852v2.769h-1.491Zm.266-.266h.959v-2.237h-.453l-.506.675v1.562Zm1.864-7.19h4.687l-4.687 3.196v-3.196Zm.267.266v2.426l3.557-2.426h-3.557Zm-8.149-.266h7.243v3.835l-2.13.852v2.769h-5.113v-7.456Zm.266.266v6.924h4.581v-2.683l2.13-.853v-3.388H93.15Zm14.22-.479v5.965h-6.604V77.23l6.604-4.474Zm-.266.502-6.071 4.113v1.084h6.071v-5.197Zm2.397-.502h5.752v3.409l-5.752-3.409Zm.972.266 4.513 2.675v-2.675h-4.513ZM52.407 19.284l1.704-1.491v1.491h-1.704Zm.709-.266h.729v-.639l-.729.639Zm16.121-7.403h-6.604v-1.492l5.539-4.9h1.065v6.392Zm-.266-4.825v-1.3h-.698l-5.374 4.753v1.105h.946l5.126-4.558Zm-4.726 4.558h4.726V7.146l-4.726 4.202Zm6.27.267V5.223h1.065l5.539 5.113v1.279h-6.604Zm6.23-.267h.108v-.895L71.476 5.49h-.695v.527l.037-.04 5.927 5.371Zm-5.964-5.044v5.044h5.567l-5.567-5.044Zm-16.67 21.075h-6.604v-3.408l3.835-3.622h2.769v7.03Zm-.687-6.764h-1.976l-3.675 3.47v1.392l2.291-1.932v3.568h1.571v-4.906l1.789-1.592Zm-1.523 6.498h1.944v-6.498h-.02l-1.924 1.711v4.787Zm-4.128-1.288v1.288h2.024v-2.995l-2.024 1.707Zm-.905 24.562v5.965l-6.817-5.965h6.817Zm-.266.266H40.76l5.842 5.112v-5.112Zm16.031 7.404h6.604v7.03h-6.604v-7.03Zm.266.266v6.497h6.072v-6.497h-6.072Zm6.977-.266h7.03v7.03h-7.03v-7.03Zm.266.266v6.497h6.498v-6.497h-6.498Zm7.829-.266h6.391v7.03h-6.391v-7.03Zm.267.266v6.497h5.858v-6.497h-5.858Zm7.403-.266h6.391v7.03h-6.391v-7.03Zm.266.266v6.497h5.859v-6.497h-5.859Zm6.977-.266h7.456v7.03h-7.456v-7.03Zm.266.266v6.497h6.924v-6.497H93.15Zm7.616-.266h6.604v7.03h-6.604v-7.03Zm.267.266v6.497h6.071v-6.497h-6.071Zm6.764-.266h7.669v7.03h-7.669v-7.03Zm.266.266v6.497h7.137v-6.497h-7.137Zm8.468-.266h6.604v7.03h-6.604v-7.03Zm.266.266v6.497h6.072v-6.497h-6.072Zm-.266-7.936h6.604v6.924h-6.604v-6.924Zm6.338 2.423v-2.157h-6.072v2.157h6.072Zm-6.072.267v3.968h6.072v-3.968h-6.072Zm-61.834 4.98h6.605v7.03h-4.474l-2.131-1.918v-5.112Zm.267.266v4.728l1.966 1.769h4.105v-6.497H55.23Zm37.654-7.936h7.456v6.924h-7.456v-6.924Zm.266.266v6.392h6.924v-6.392H93.15Zm-7.509-.266h6.391v6.924h-6.391v-6.924Zm.266.266v6.392h5.859v-6.392h-5.859Zm-7.936-.266h6.391v6.924h-6.391v-6.924Zm.267.266v6.392h5.858v-6.392h-5.858Zm-7.936-.266h6.604v6.924h-6.604v-6.924Zm.266.266v6.392h6.072v-6.392h-6.072Zm-7.935-.266h6.604v6.924h-6.604v-6.924Zm.266.266v6.392h6.072v-6.392h-6.072Zm-7.936-.266h6.605v6.924h-6.605v-6.924Zm.267.266v6.392h6.071v-6.392H55.23Zm-7.723-.266h6.391v6.924h-6.391v-6.924Zm.266.266v6.392h5.859v-6.392h-5.859Zm-7.935-7.411h6.604v6.497h-6.604v-6.497Zm.937.266h-.671v.591l.671-.591Zm4.071 0h-3.661l-1.081.952v3.181l4.742-4.133Zm-4.742 4.417v1.548h6.072v-5.965h-.924l-5.114 4.456-.034-.039Zm7.19-4.683h6.604v6.497h-6.604v-6.497Zm.266.266v5.965h6.072v-5.965H47.56Zm7.403-.266h6.605v6.497h-6.605v-6.497Zm.267.266v5.965h6.071v-5.965H55.23Zm7.403-.266h6.604v6.497h-6.604v-6.497Zm.266.266v5.965h6.072v-5.965h-6.072Zm7.403-.266h6.604v6.497h-6.604v-6.497Zm.266.266v5.965h6.072v-5.965h-6.072Zm7.403-.266h6.605v6.497h-6.605v-6.497Zm.267.266v5.965h6.071v-5.965h-6.071Zm7.403-.266h6.391v6.497h-6.391v-6.497Zm.266.266v5.965h5.859v-5.965h-5.859Zm7.19-.266h7.03v6.497h-7.03v-6.497Zm1.397.266h-1.131v5.965h6.498v-1.345l-5.37-4.617.003-.003Zm5.367 4.269v-2.819l-1.707-1.45h-3.259l4.966 4.269Zm0-3.168v-1.101h-1.296l1.296 1.101Zm8.362-1.367h7.243v6.497h-7.243v-6.497Zm.266.266v5.965h6.711v-5.965h-6.711Zm-7.723-7.82h6.604v6.808h-6.604v-6.808Zm4.767.266h-4.5v.879h4.5v-.879Zm1.571 3.009v-3.009h-1.305v.879h.719v.266h-5.485v1.864h6.071Zm-6.071.266v3.001h6.071v-3.001h-6.071Zm-.906-4.393h-7.03v-7.031h5.113l1.917 1.918v5.113Zm-3.88-6.764h-2.884v6.497h6.498v-3.31l-3.655-3.14.041-.047Zm3.614 2.836v-1.075L98.1 28.072h-1.541l3.302 2.836Zm-6.764 4.78h7.03v6.808h-7.03v-6.808Zm.266 1.411v1.864h6.498v-1.864h-6.498Zm6.498-.266v-.879h-6.498v.879h6.498Zm-2.8 5.397h2.8v-3.001H93.53l3.531 3.001Zm-3.698-2.793v2.793h3.287l-3.287-2.793Zm-30.73-3.749h6.604v6.808h-6.604v-6.808Zm.266 1.198v2.077h6.072v-2.077h-6.072Zm6.072-.266v-.666h-6.072v.666h6.072Zm-6.072 2.609v3.001h6.072v-3.001h-6.072Zm-7.936-3.541h6.605v6.808h-6.605v-6.808Zm6.338.932v-.666H55.23v.666h6.071Zm0 2.343v-2.077H55.23v2.077h6.071Zm-6.071.266v3.001h6.071v-3.001H55.23Zm-.267-11.113h6.605v6.924h-6.605v-6.924Zm3.615.266H55.23v2.856l3.348-2.856Zm2.723 1.026v-1.026h-2.313l-3.758 3.206v3.092l6.071-5.272Zm-5.772 5.365h5.772V29.76l-5.772 5.013Zm7.104-6.657h6.604v6.924h-6.604v-6.924Zm.266.266v6.391h6.072v-6.391h-6.072Zm7.403-.266h6.604v6.924h-6.604v-6.924Zm.266.266v6.391h6.072v-6.391h-6.072Zm15.073-.266h6.604v6.924h-6.604v-6.924Zm2.447.266h-2.181v4.374l2.181 1.85v-6.224Zm2.106 0h-1.839v6.391h1.839v-6.391Zm.267 6.391h1.518v-6.391h-1.518v6.391Zm-4.554-1.668v1.668h1.967l-1.967-1.668Zm-7.936-12.756h6.605v7.021h-6.605v-7.021Zm.267.985v4.902l1.021.868h5.05v-5.77h-6.071Zm6.071-.266v-.453h-6.071v.453h6.071Zm-6.071 5.518v.518h.61l-.61-.518Zm-23.275-6.237h6.605v7.021h-6.605v-7.021Zm6.338.932v-.666H55.23v.666h6.071Zm0 4.845v-4.579H55.23v5.557h4.846l1.192-1.017.033.039Zm-.814.978h.814v-.695l-.814.695Zm2.146-14.327h6.604v6.498h-6.604v-6.498Zm.266.267v5.965h6.072v-5.965h-6.072Zm7.403-.267h6.604v6.498h-6.604v-6.498Zm.266.267v5.965h6.072v-5.965h-6.072Zm-9-.267v6.498h-6.392v-2.548l4.474-3.95h1.918Zm-.267.833v-.566h-1.55l-4.308 3.804v1.972l5.858-5.21Zm-5.67 5.399h5.67v-5.043l-5.67 5.043Zm22.553.266v-6.498h2.344l4.048 3.95v2.548h-6.392Zm6.125-1.071V16.84l-3.89-3.796h-1.804l5.694 5.16Zm-5.858-4.95v5.755h5.858v-.519l-.036.04-5.822-5.276Zm7.19 13.699v-6.604h3.408l3.196 2.77v3.834h-6.604Zm6.338-3.329v-.384l-3.029-2.625h-3.043v.453h2.448v5.619h1.839v-3.063h1.785Zm-1.518 3.063h1.518v-2.796h-1.518v2.796Zm-4.554-5.353v5.353h2.181v-5.353h-2.181Zm10.812 5.619h-3.622V23.7l3.622 3.253Zm-.695-.266-2.661-2.39v2.39h2.661Zm-8.253-7.412h-2.13v-1.908l2.13 1.908Zm-.696-.266-1.168-1.046v1.046h1.168ZM49.211 58.057h5.113v4.686l-5.113-4.686Zm.685.266 4.162 3.815v-3.815h-4.162ZM69.157 72.25h-3.591L62.5 69.622v-3.39h6.657v6.018Zm-.266-5.752h-6.125v3.001l2.899 2.485h3.226v-5.486Zm-7.323-.346v2.876l-3.196-2.876h3.196Zm-.267.266h-2.235l2.235 2.012v-2.012Zm15.525-.186v6.018h-6.87v-6.018h6.87Zm-6.604.266v5.486h6.338v-5.486h-6.338Zm14.061-.266v6.018h-6.445v-6.018h6.445Zm-6.178.266v5.486h5.911v-5.486h-5.911Zm21.942-.692v6.444h-7.296v-6.444h7.296Zm-7.03.266v5.912h6.764v-5.912h-6.764Zm14.274-.266v6.444h-6.445v-6.444h6.445Zm-6.179.266v5.912h5.912v-5.912h-5.912Zm14.274-.266v6.444h-7.297v-6.444h7.297Zm-7.03.266v5.912h6.764v-5.912h-6.764Zm14.699-.266v6.444h-6.444v-6.444h6.444Zm-6.178.266v5.912h5.912v-5.912h-5.912ZM46.442 27.379h-3.196l3.196-2.982v2.982Zm-.266-.266V25.01l-2.254 2.103h2.254Zm62.047 45.643 7.03 4.261v1.704h-7.03v-5.965Zm.266.473v5.226h6.497v-1.288l-6.497-3.938Zm7.829-.473h7.03v7.669h-4.687v-2.769l-.852-.852h-1.491v-4.048Zm.266.266v3.515h1.336l1.008 1.009v2.613h4.154v-7.137h-6.498Zm2.077 8.042h4.9v6.179h-4.9v-6.179Zm.267.267v5.645h4.367v-5.645h-4.367Zm-.48 6.977h5.113v6.391h-5.113v-6.391Zm.267.266v5.859h4.58v-5.859h-4.58Zm-20.718-1.118h-5.326v-5.965h5.326v5.965Zm-.266-.267v-5.432h-4.794v5.432h4.794Zm-5.779-20.957v6.018h-6.444v-6.018h6.444Zm-6.178.266v5.486h5.912v-5.486h-5.912Zm29.905-24.002h-7.669v-6.382l6.736 6.116h.933v.266Zm-2.605-.266h1.276l-6.074-5.515v1.421l4.798 4.094Zm-4.798-3.744v3.744h4.387l-4.387-3.744Zm-30.305-2.798h6.605v6.808h-6.605m29.399 14.815h-6.391v-6.924h6.391"/>
    <path class="porte" fill="#e84011" d="M101.405 79.999h13.847v31.316h-13.847z"/>
    <path class="cabinet_nom" d="M156.568 82.974c-2.398 0-4.144-.86-5.135-2.32-1.172-1.511-1.433-3.909-1.433-7.167s.261-5.656 1.433-7.167c1.017-1.46 2.737-2.32 5.135-2.32 3.622 0 6.229 2.137 6.229 6.073 0 .287-.235.521-.521.521h-3.024c-.286 0-.547-.234-.547-.521 0-1.173-.782-2.085-2.137-2.085-.965 0-1.694.365-2.059 1.173-.417.886-.417 2.45-.417 4.326 0 1.877 0 3.44.417 4.326.391.808 1.094 1.173 2.059 1.173 1.355 0 2.137-.86 2.137-2.085 0-.286.261-.521.547-.521h3.024c.286 0 .521.235.521.521 0 3.884-2.554 6.073-6.229 6.073Zm9.174-.365c-.417 0-.574-.391-.495-.704l4.899-17.149c.079-.261.261-.391.496-.391h3.935c.235 0 .417.13.495.391l4.848 17.149c.078.313-.078.704-.469.704h-3.232c-.235 0-.417-.13-.495-.391l-.834-2.789c-.052-.234-.13-.365-.365-.365h-3.962c-.182 0-.26.079-.312.287l-.782 2.867c-.078.261-.261.391-.495.391h-3.232Zm5.421-7.689c-.052.209.078.339.234.339h2.372c.157 0 .287-.13.235-.339l-1.225-5.056c-.052-.234-.339-.234-.417 0l-1.199 5.056Zm12.614 7.689c-.286 0-.521-.235-.521-.521V64.886c0-.286.235-.521.521-.521h5.812c3.049 0 5.447 2.241 5.447 5.03 0 1.303-.417 2.554-1.407 3.493-.183.182-.183.391 0 .495 1.095.86 1.642 2.293 1.642 3.675 0 3.336-2.372 5.551-5.682 5.551h-5.812Zm3.362-4.04c0 .157.105.261.261.261h1.929c1.146 0 1.85-.912 1.85-1.955 0-1.016-.73-1.928-1.85-1.928H187.4c-.156 0-.261.104-.261.26v3.362Zm0-7.349c0 .156.105.26.261.26h1.981c.912 0 1.616-.808 1.616-1.746 0-.964-.704-1.798-1.616-1.798H187.4c-.156 0-.261.104-.261.26v3.024Zm12.875 11.389c-.286 0-.521-.235-.521-.521V64.886c0-.286.235-.521.521-.521h2.945c.287 0 .522.235.522.521v17.202c0 .286-.235.521-.522.521h-2.945Zm8.835 0c-.286 0-.521-.235-.521-.521V64.886c0-.286.235-.521.521-.521h3.232c.365 0 .521.209.626.469l3.466 8.835c.078.209.391.183.391-.052v-8.731c0-.286.235-.521.521-.521h2.945c.287 0 .522.235.522.521v17.202c0 .286-.235.521-.522.521h-3.231c-.365 0-.522-.209-.626-.469l-3.44-8.835c-.104-.209-.417-.183-.417.052v8.731c0 .286-.235.521-.521.521h-2.946Zm17.072 0c-.287 0-.522-.235-.522-.521V64.886c0-.286.235-.521.522-.521h9.356c.287 0 .521.235.521.521v2.867c0 .287-.234.522-.521.522h-5.63c-.156 0-.26.104-.26.26v2.554c0 .157.104.261.26.261h5.421c.287 0 .522.234.522.521v2.867c0 .287-.235.521-.522.521h-5.421c-.156 0-.26.105-.26.261v2.919c0 .156.104.261.26.261h5.734c.287 0 .522.234.522.521v2.867c0 .286-.235.521-.522.521h-9.46Zm17.383 0c-.286 0-.521-.235-.521-.521V68.613c0-.156-.104-.26-.261-.26h-3.179c-.287 0-.521-.235-.521-.522v-2.945c0-.286.234-.521.521-.521h10.894c.287 0 .521.235.521.521v2.945c0 .287-.234.522-.521.522h-3.18c-.156 0-.26.104-.26.26v13.475c0 .286-.235.521-.522.521h-2.971Zm-65.39 22.128c-.286 0-.521-.235-.521-.521V87.014c0-.286.235-.521.521-.521h2.945c.287 0 .522.235.522.521v13.475c0 .156.104.26.26.26h5.682c.287 0 .521.235.521.522v2.945c0 .286-.234.521-.521.521h-9.409Zm12.693 0c-.417 0-.574-.391-.495-.704l4.899-17.149c.079-.261.261-.391.496-.391h3.935c.235 0 .417.13.495.391l4.848 17.149c.078.313-.078.704-.469.704h-3.232c-.235 0-.417-.13-.495-.391l-.834-2.789c-.052-.234-.131-.365-.365-.365h-3.962c-.182 0-.26.079-.312.287l-.782 2.867c-.078.261-.261.391-.495.391h-3.232Zm5.421-7.688c-.052.208.078.338.234.338h2.372c.156 0 .287-.13.235-.338l-1.225-5.057c-.052-.234-.339-.234-.417 0l-1.199 5.057Zm17.748 8.053c-3.283 0-6.124-1.851-6.124-6.151V87.014c0-.286.234-.521.521-.521h2.945c.287 0 .521.235.521.521v11.963c0 1.277.86 2.137 2.137 2.137 1.304 0 2.164-.86 2.164-2.137V87.014c0-.286.234-.521.521-.521h2.945c.287 0 .521.235.521.521v11.937c0 4.3-2.841 6.151-6.151 6.151Zm11.416-.365c-.287 0-.521-.235-.521-.521V87.014c0-.286.234-.521.521-.521h5.682c3.622 0 5.864 2.502 5.864 5.838 0 2.111-.991 3.571-2.45 4.718-.365.312-.339.469-.183.86l2.528 5.942c.209.469.053.886-.443.886h-2.945c-.391 0-.573-.156-.677-.443l-2.502-6.021c-.079-.156-.157-.234-.339-.234h-.808c-.157 0-.261.104-.261.261v5.916c0 .286-.234.521-.521.521h-2.945Zm3.466-10.764c0 .157.104.261.261.261h1.902c1.069 0 1.825-.834 1.825-1.903 0-1.147-.756-1.928-1.825-1.928h-1.902c-.157 0-.261.104-.261.26v3.31Zm12.745 10.764c-.287 0-.521-.235-.521-.521V87.014c0-.286.234-.521.521-.521h9.356c.287 0 .522.235.522.521v2.867c0 .287-.235.522-.522.522h-5.629c-.157 0-.261.104-.261.26v2.554c0 .157.104.261.261.261h5.421c.287 0 .521.235.521.521v2.867c0 .287-.234.521-.521.521h-5.421c-.157 0-.261.105-.261.261v2.919c0 .156.104.261.261.261h5.734c.286 0 .521.234.521.521v2.867c0 .286-.235.521-.521.521h-9.461Zm14.829 0c-.286 0-.521-.235-.521-.521V87.014c0-.286.235-.521.521-.521h3.232c.365 0 .522.209.626.469l3.466 8.836c.078.208.391.182.391-.053v-8.731c0-.286.235-.521.521-.521h2.945c.287 0 .522.235.522.521v17.202c0 .286-.235.521-.522.521h-3.231c-.365 0-.522-.208-.626-.469l-3.44-8.835c-.104-.209-.417-.183-.417.052v8.731c0 .286-.235.521-.521.521h-2.946Zm19.6 0c-.287 0-.522-.235-.522-.521V90.741c0-.156-.104-.26-.26-.26h-3.18c-.287 0-.521-.235-.521-.522v-2.945c0-.286.234-.521.521-.521h10.894c.287 0 .522.235.522.521v2.945c0 .287-.235.522-.522.522h-3.179c-.157 0-.261.104-.261.26v13.475c0 .286-.235.521-.521.521h-2.971Zm18.217 0c-.286 0-.521-.235-.521-.521V87.014c0-.286.235-.521.521-.521h2.945c.287 0 .522.235.522.521v13.475c0 .156.104.26.26.26h5.682c.287 0 .521.235.521.522v2.945c0 .286-.234.521-.521.521h-9.409Zm12.693 0c-.417 0-.573-.391-.495-.704l4.9-17.149c.078-.261.26-.391.495-.391h3.935c.235 0 .417.13.495.391l4.848 17.149c.078.313-.078.704-.469.704h-3.232c-.234 0-.417-.13-.495-.391l-.834-2.789c-.052-.234-.13-.365-.365-.365h-3.961c-.183 0-.261.079-.313.287l-.782 2.867c-.078.261-.261.391-.495.391h-3.232Zm5.421-7.688c-.052.208.078.338.235.338h2.371c.157 0 .287-.13.235-.338l-1.225-5.057c-.052-.234-.339-.234-.417 0l-1.199 5.057Zm12.614 7.688c-.286 0-.521-.235-.521-.521V87.014c0-.286.235-.521.521-.521h2.945c.287 0 .522.235.522.521v17.202c0 .286-.235.521-.522.521h-2.945Zm8.836 0c-.287 0-.522-.235-.522-.521V87.014c0-.286.235-.521.522-.521h3.231c.365 0 .522.209.626.469l3.466 8.836c.078.208.391.182.391-.053v-8.731c0-.286.235-.521.521-.521h2.945c.287 0 .522.235.522.521v17.202c0 .286-.235.521-.522.521h-3.231c-.365 0-.522-.208-.626-.469l-3.44-8.835c-.104-.209-.417-.183-.417.052v8.731c0 .286-.235.521-.521.521h-2.945Zm16.47-.522V87.01c0-.136.053-.257.159-.363.106-.106.227-.159.362-.159h9.468c.136 0 .255.053.357.159.102.106.152.227.152.363v2.609c0 .135-.05.256-.152.362-.102.106-.221.159-.357.159h-6.083c-.169 0-.254.089-.254.268v3.117c0 .17.085.259.254.268h5.867c.136 0 .257.051.363.152.106.102.159.225.159.369v2.609c0 .136-.051.257-.153.363-.102.106-.225.159-.369.159h-5.867c-.169 0-.254.085-.254.255v3.13c0 .17.085.255.254.255h6.185c.136 0 .257.053.363.159.106.106.159.227.159.362v2.609c0 .136-.053.257-.159.363-.106.106-.227.159-.363.159h-9.57c-.135 0-.256-.053-.362-.159-.106-.106-.159-.227-.159-.363Zm4.021-19.025c-.17 0-.31-.078-.42-.235-.11-.157-.085-.338.076-.541l2.138-2.978c.068-.085.151-.176.248-.274.098-.097.24-.146.427-.146h2.787c.246 0 .394.078.445.235.051.157.009.316-.127.478l-3.003 3.143c-.085.085-.176.159-.274.223-.098.063-.265.095-.503.095h-1.794Zm-154.975 41.446c-.417 0-.573-.391-.495-.704l4.9-17.149c.078-.261.26-.391.495-.391h3.935c.235 0 .417.13.496.391l4.847 17.149c.078.313-.078.704-.469.704h-3.232c-.234 0-.417-.131-.495-.391l-.834-2.789c-.052-.235-.13-.365-.365-.365h-3.961c-.183 0-.261.078-.313.287l-.782 2.867c-.078.26-.26.391-.495.391h-3.232Zm5.421-7.689c-.052.209.078.339.235.339h2.372c.156 0 .286-.13.234-.339l-1.225-5.056c-.052-.235-.339-.235-.417 0l-1.199 5.056Zm12.615 7.689c-.287 0-.522-.235-.522-.522v-17.201c0-.287.235-.521.522-.521h5.681c3.623 0 5.864 2.502 5.864 5.838 0 2.111-.99 3.57-2.45 4.717-.364.313-.338.469-.182.86l2.528 5.942c.209.47.052.887-.443.887h-2.945c-.391 0-.573-.157-.678-.443l-2.502-6.021c-.078-.156-.156-.235-.339-.235h-.807c-.157 0-.261.105-.261.261v5.916c0 .287-.235.522-.521.522h-2.945Zm3.466-10.764c0 .156.104.26.261.26h1.902c1.069 0 1.824-.834 1.824-1.902 0-1.147-.755-1.929-1.824-1.929h-1.902c-.157 0-.261.104-.261.261v3.31ZM238.953 127c-2.398 0-4.144-.86-5.134-2.319-1.173-1.512-1.434-3.91-1.434-7.167 0-3.258.261-5.656 1.434-7.168 1.016-1.459 2.736-2.319 5.134-2.319 3.623 0 6.229 2.137 6.229 6.072 0 .287-.235.522-.521.522h-3.024c-.286 0-.547-.235-.547-.522 0-1.172-.782-2.085-2.137-2.085-.964 0-1.694.365-2.059 1.173-.417.886-.417 2.45-.417 4.327 0 1.876 0 3.44.417 4.326.391.808 1.095 1.173 2.059 1.173 1.355 0 2.137-.86 2.137-2.085 0-.287.261-.521.547-.521h3.024c.286 0 .521.234.521.521 0 3.883-2.554 6.072-6.229 6.072Zm10.764-.364c-.287 0-.521-.235-.521-.522v-17.201c0-.287.234-.521.521-.521h2.945c.287 0 .521.234.521.521v6.177c0 .156.104.26.261.26h3.727c.156 0 .26-.104.26-.26v-6.177c0-.287.235-.521.522-.521h2.945c.286 0 .521.234.521.521v17.201c0 .287-.235.522-.521.522h-2.945c-.287 0-.522-.235-.522-.522v-6.515c0-.157-.104-.261-.26-.261h-3.727c-.157 0-.261.104-.261.261v6.515c0 .287-.339.522-.625.522h-2.841Zm17.071 0c-.287 0-.521-.235-.521-.522v-17.201c0-.287.234-.521.521-.521h2.945c.287 0 .521.234.521.521v17.201c0 .287-.234.522-.521.522h-2.945Zm11.363 0c-.287 0-.521-.235-.521-.522V112.64c0-.156-.104-.261-.261-.261h-3.179c-.287 0-.522-.234-.522-.521v-2.945c0-.287.235-.521.522-.521h10.894c.287 0 .521.234.521.521v2.945c0 .287-.234.521-.521.521h-3.18c-.156 0-.26.105-.26.261v13.474c0 .287-.235.522-.522.522h-2.971Zm11.39 0c-.287 0-.522-.235-.522-.522v-17.201c0-.287.235-.521.522-.521h9.356c.287 0 .521.234.521.521v2.867c0 .287-.234.521-.521.521h-5.629c-.157 0-.261.104-.261.261v2.554c0 .156.104.261.261.261h5.421c.286 0 .521.234.521.521v2.867c0 .286-.235.521-.521.521h-5.421c-.157 0-.261.104-.261.261v2.919c0 .156.104.26.261.26h5.733c.287 0 .522.235.522.521v2.867c0 .287-.235.522-.522.522h-9.46Zm20.224.364c-2.398 0-4.144-.86-5.134-2.319-1.173-1.512-1.434-3.91-1.434-7.167 0-3.258.261-5.656 1.434-7.168 1.016-1.459 2.736-2.319 5.134-2.319 3.623 0 6.229 2.137 6.229 6.072 0 .287-.234.522-.521.522h-3.023c-.287 0-.548-.235-.548-.522 0-1.172-.782-2.085-2.137-2.085-.964 0-1.694.365-2.059 1.173-.417.886-.417 2.45-.417 4.327 0 1.876 0 3.44.417 4.326.391.808 1.095 1.173 2.059 1.173 1.355 0 2.137-.86 2.137-2.085 0-.287.261-.521.548-.521h3.023c.287 0 .521.234.521.521 0 3.883-2.554 6.072-6.229 6.072Zm13.344-.364c-.286 0-.521-.235-.521-.522V112.64c0-.156-.104-.261-.261-.261h-3.179c-.287 0-.522-.234-.522-.521v-2.945c0-.287.235-.521.522-.521h10.894c.287 0 .521.234.521.521v2.945c0 .287-.234.521-.521.521h-3.18c-.156 0-.26.105-.26.261v13.474c0 .287-.235.522-.522.522h-2.971Zm11.39 0c-.287 0-.522-.235-.522-.522v-17.201c0-.287.235-.521.522-.521h9.356c.287 0 .521.234.521.521v2.867c0 .287-.234.521-.521.521h-5.629c-.157 0-.261.104-.261.261v2.554c0 .156.104.261.261.261h5.421c.286 0 .521.234.521.521v2.867c0 .286-.235.521-.521.521h-5.421c-.157 0-.261.104-.261.261v2.919c0 .156.104.26.261.26h5.733c.287 0 .522.235.522.521v2.867c0 .287-.235.522-.522.522h-9.46Zm19.859.364c-3.701 0-6.463-2.293-6.463-5.812v-.13c0-.287.234-.521.521-.521h3.102c.286 0 .521.234.521.521v.261c0 1.147.938 1.955 2.267 1.955 1.356 0 2.242-.834 2.242-1.877 0-1.016-.626-1.616-1.851-1.955l-2.215-.599c-2.58-.678-4.118-2.632-4.118-5.291 0-3.18 2.528-5.525 6.073-5.525 3.544 0 5.968 2.163 5.968 5.317v.182c0 .287-.235.521-.521.521h-2.998c-.286 0-.521-.234-.521-.521v-.182c0-.965-.73-1.59-1.928-1.59-1.173 0-1.981.651-1.981 1.59 0 .964.599 1.485 1.928 1.85l2.033.6c2.763.807 4.249 2.528 4.249 5.342 0 3.597-2.685 5.864-6.308 5.864Z"/>
    <path class="associes_nom" fill="#e84011" d="M381.259 96.111c-1.572 0-2.864-1.106-2.864-3.011v-.213c0-.146.133-.266.266-.266h.773c.147 0 .266.12.266.266v.213c0 1.159.627 1.732 1.559 1.732.919 0 1.559-.573 1.559-1.732v-6.194c0-.146.119-.266.266-.266h.746c.146 0 .266.12.266.266V93.1c0 1.919-1.199 3.011-2.837 3.011Zm8.272 0c-1.572 0-2.877-.946-2.877-2.877v-6.328c0-.146.12-.266.266-.266h.746c.147 0 .267.12.267.266v6.341c0 1.026.693 1.585 1.598 1.585.906 0 1.599-.559 1.599-1.585v-6.341c0-.146.12-.266.266-.266h.746c.147 0 .267.12.267.266v6.328c0 1.931-1.306 2.877-2.878 2.877Zm6.141-.147c-.146 0-.266-.119-.266-.266v-8.792c0-.146.12-.266.266-.266h.746c.147 0 .267.12.267.266v7.646c0 .08.053.134.133.134h3.557c.146 0 .266.119.266.266v.746c0 .147-.12.266-.266.266h-4.703Zm7.394 0c-.147 0-.267-.119-.267-.266v-.746c0-.147.12-.266.267-.266h1.811v-6.767h-1.678c-.147 0-.267-.12-.267-.267v-.746c0-.146.12-.266.267-.266h4.635c.147 0 .267.12.267.266v.746c0 .147-.12.267-.267.267h-1.678v6.767h1.812c.146 0 .266.119.266.266v.746c0 .147-.12.266-.266.266h-4.902Zm8.352 0c-.147 0-.267-.119-.267-.266v-8.792c0-.146.12-.266.267-.266h4.636c.146 0 .266.12.266.266v.733c0 .146-.12.266-.266.266h-3.491c-.079 0-.133.053-.133.133v2.358c0 .08.054.133.133.133h3.357c.147 0 .267.12.267.267v.733c0 .146-.12.266-.267.266h-3.357c-.079 0-.133.053-.133.133v2.638c0 .08.054.133.133.133h3.531c.146 0 .266.12.266.266v.733c0 .147-.12.266-.266.266h-4.676Zm15.412 0c-.146 0-.266-.119-.266-.266v-8.792c0-.146.12-.266.266-.266h1.173c.146 0 .239.066.279.226l1.106 3.757c.04.12.186.133.226 0l1.093-3.757c.053-.16.133-.226.279-.226h1.173c.146 0 .266.12.266.266v8.792c0 .147-.12.266-.266.266h-.64c-.146 0-.266-.119-.266-.266v-6.567c0-.133-.173-.16-.213-.027l-.959 3.397c-.067.253-.147.32-.293.32h-.573c-.147 0-.24-.067-.307-.32l-.959-3.397c-.04-.133-.213-.106-.213.027v6.567c0 .147-.12.266-.266.266h-.64Zm10.657.147c-1.292 0-2.211-.653-2.677-1.572-.4-.733-.453-1.838-.453-3.237s.053-2.504.453-3.237c.466-.919 1.385-1.572 2.677-1.572s2.211.653 2.678 1.572c.399.733.453 1.838.453 3.237s-.054 2.504-.453 3.237c-.467.919-1.386 1.572-2.678 1.572Zm-1.812-4.809c0 .972.014 1.945.227 2.478.306.732.906 1.052 1.585 1.052.68 0 1.279-.32 1.585-1.052.213-.533.227-1.506.227-2.478 0-.972-.014-1.945-.227-2.478-.306-.732-.905-1.052-1.585-1.052-.679 0-1.279.32-1.585 1.052-.213.533-.227 1.506-.227 2.478Zm7.42 4.662c-.146 0-.266-.119-.266-.266v-8.792c0-.146.12-.266.266-.266h2.598c1.598 0 2.784 1.145 2.784 2.797 0 1.146-.666 1.972-1.492 2.478-.213.093-.2.213-.107.399l1.546 3.211c.12.24 0 .439-.227.439h-.746c-.2 0-.293-.093-.373-.253l-1.598-3.343c-.04-.094-.093-.147-.227-.147h-1.012c-.08 0-.133.053-.133.133v3.344c0 .147-.12.266-.267.266h-.746Zm1.013-5.128c0 .08.053.133.133.133h1.439c.825 0 1.478-.693 1.478-1.532 0-.932-.653-1.532-1.478-1.532h-1.439c-.08 0-.133.053-.133.133v2.798Zm7.273 5.128c-.147 0-.266-.119-.266-.266v-8.792c0-.146.119-.266.266-.266h4.636c.146 0 .266.12.266.266v.733c0 .146-.12.266-.266.266h-3.49c-.08 0-.134.053-.134.133v2.358c0 .08.054.133.134.133h3.356c.147 0 .267.12.267.267v.733c0 .146-.12.266-.267.266h-3.356c-.08 0-.134.053-.134.133v2.638c0 .08.054.133.134.133h3.53c.146 0 .266.12.266.266v.733c0 .147-.12.266-.266.266h-4.676Zm8.232 0c-.146 0-.266-.119-.266-.266v-8.792c0-.146.12-.266.266-.266h.746c.147 0 .267.12.267.266v7.646c0 .08.053.134.133.134h3.557c.146 0 .266.119.266.266v.746c0 .147-.12.266-.266.266h-4.703Zm-80.952 14.987c-.146 0-.266-.12-.266-.267v-8.792c0-.146.12-.266.266-.266h1.066c.16 0 .227.066.293.226l2.478 6.261c.04.12.213.093.213-.026v-6.195c0-.146.12-.266.266-.266h.746c.147 0 .267.12.267.266v8.792c0 .147-.12.267-.267.267h-1.065c-.16 0-.227-.067-.293-.227l-2.478-6.261c-.04-.12-.213-.093-.213.027v6.194c0 .147-.12.267-.267.267h-.746Zm8.073 0c-.147 0-.266-.12-.266-.267v-.746c0-.146.119-.266.266-.266h1.812v-6.767h-1.679c-.146 0-.266-.12-.266-.267v-.746c0-.146.12-.266.266-.266h4.636c.146 0 .266.12.266.266v.746c0 .147-.12.267-.266.267h-1.679v6.767h1.812c.147 0 .267.12.267.266v.746c0 .147-.12.267-.267.267h-4.902Zm10.657.146c-1.279 0-2.212-.626-2.678-1.572-.399-.732-.466-1.838-.466-3.237 0-1.398.053-2.504.466-3.237.466-.932 1.399-1.572 2.678-1.572 1.825 0 3.024 1.186 3.024 2.944 0 .147-.12.267-.267.267h-.786c-.146 0-.279-.12-.279-.267 0-.959-.613-1.665-1.692-1.665-.666 0-1.279.32-1.585 1.053-.227.532-.24 1.505-.24 2.477 0 .973 0 1.945.24 2.478.319.719.919 1.052 1.585 1.052 1.079 0 1.692-.692 1.692-1.665 0-.146.133-.266.279-.266h.786c.147 0 .267.12.267.266 0 1.759-1.199 2.944-3.024 2.944Zm7.779 0c-1.292 0-2.211-.653-2.677-1.572-.4-.732-.453-1.838-.453-3.237 0-1.398.053-2.504.453-3.237.466-.919 1.385-1.572 2.677-1.572s2.212.653 2.678 1.572c.399.733.453 1.839.453 3.237 0 1.399-.054 2.505-.453 3.237-.466.919-1.386 1.572-2.678 1.572Zm-1.811-4.809c0 .973.013 1.945.226 2.478.306.733.906 1.052 1.585 1.052.68 0 1.279-.319 1.585-1.052.214-.533.227-1.505.227-2.478 0-.972-.013-1.945-.227-2.477-.306-.733-.905-1.053-1.585-1.053-.679 0-1.279.32-1.585 1.053-.213.532-.226 1.505-.226 2.477Zm7.952 4.663c-.146 0-.266-.12-.266-.267v-8.792c0-.146.12-.266.266-.266h.746c.147 0 .267.12.267.266v7.647c0 .08.053.133.133.133h3.557c.146 0 .266.12.266.266v.746c0 .147-.12.267-.266.267h-4.703Zm6.874 0c-.2 0-.306-.187-.253-.347l2.371-8.765c.04-.147.147-.213.266-.213h1.173c.12 0 .226.066.266.213l2.371 8.765c.054.16-.053.347-.253.347h-.786c-.12 0-.213-.067-.253-.2l-.546-1.958c-.027-.094-.067-.147-.16-.147h-2.451c-.093 0-.133.053-.16.147l-.546 1.958c-.027.133-.133.2-.253.2h-.786Zm1.918-3.704c-.026.094.027.174.12.174h1.865c.093 0 .147-.08.12-.174l-.946-3.716c-.027-.12-.186-.12-.213 0l-.946 3.716Zm9.098 3.85c-1.758 0-3.05-1.026-3.05-2.851v-.079c0-.147.12-.267.266-.267h.786c.147 0 .267.12.267.267v.106c0 .986.732 1.599 1.718 1.599.999 0 1.665-.626 1.665-1.479 0-.813-.506-1.252-1.372-1.505l-1.052-.307c-1.132-.333-2.012-1.119-2.012-2.544 0-1.532 1.253-2.558 2.824-2.558 1.599 0 2.798.999 2.798 2.518v.147c0 .146-.12.266-.267.266h-.759c-.146 0-.266-.12-.266-.266v-.134c0-.812-.586-1.305-1.506-1.305-.879 0-1.505.479-1.505 1.292 0 .799.573 1.186 1.279 1.412l1.012.306c1.292.387 2.145 1.173 2.145 2.625 0 1.612-1.225 2.757-2.971 2.757Zm13.268-.146c-.146 0-.266-.12-.266-.267v-8.792c0-.146.12-.266.266-.266h1.172c.147 0 .24.066.28.226l1.106 3.757c.04.12.186.133.226 0l1.093-3.757c.053-.16.133-.226.279-.226h1.173c.146 0 .266.12.266.266v8.792c0 .147-.12.267-.266.267h-.64c-.146 0-.266-.12-.266-.267v-6.567c0-.133-.173-.16-.213-.027l-.959 3.397c-.067.253-.147.32-.294.32h-.572c-.147 0-.24-.067-.307-.32l-.959-3.397c-.04-.133-.213-.106-.213.027v6.567c0 .147-.12.267-.266.267h-.64Zm8.206 0c-.147 0-.266-.12-.266-.267v-.746c0-.146.119-.266.266-.266h1.812v-6.767h-1.679c-.146 0-.266-.12-.266-.267v-.746c0-.146.12-.266.266-.266h4.636c.146 0 .266.12.266.266v.746c0 .147-.12.267-.266.267h-1.679v6.767h1.812c.147 0 .267.12.267.266v.746c0 .147-.12.267-.267.267h-4.902Zm7.913 0c-.147 0-.267-.12-.267-.267v-8.792c0-.146.12-.266.267-.266h1.065c.16 0 .227.066.293.226l2.478 6.261c.04.12.213.093.213-.026v-6.195c0-.146.12-.266.267-.266h.746c.146 0 .266.12.266.266v8.792c0 .147-.12.267-.266.267h-1.066c-.16 0-.226-.067-.293-.227l-2.478-6.261c-.04-.12-.213-.093-.213.027v6.194c0 .147-.12.267-.266.267h-.746Zm7.553 0c-.2 0-.307-.187-.253-.347l2.371-8.765c.04-.147.146-.213.266-.213h1.172c.12 0 .227.066.267.213l2.371 8.765c.053.16-.053.347-.253.347h-.786c-.12 0-.213-.067-.253-.2l-.546-1.958c-.027-.094-.067-.147-.16-.147h-2.451c-.093 0-.133.053-.16.147l-.546 1.958c-.027.133-.133.2-.253.2h-.786Zm1.918-3.704c-.027.094.027.174.12.174h1.865c.093 0 .146-.08.12-.174l-.946-3.716c-.027-.12-.187-.12-.213 0l-.946 3.716Zm9.098 3.85c-1.758 0-3.05-1.026-3.05-2.851v-.079c0-.147.12-.267.266-.267h.786c.147 0 .266.12.266.267v.106c0 .986.733 1.599 1.719 1.599.999 0 1.665-.626 1.665-1.479 0-.813-.506-1.252-1.372-1.505l-1.052-.307c-1.133-.333-2.012-1.119-2.012-2.544 0-1.532 1.252-2.558 2.824-2.558 1.599 0 2.798.999 2.798 2.518v.147c0 .146-.12.266-.267.266h-.759c-.147 0-.267-.12-.267-.266v-.134c0-.812-.586-1.305-1.505-1.305-.879 0-1.505.479-1.505 1.292 0 .799.573 1.186 1.279 1.412l1.012.306c1.292.387 2.145 1.173 2.145 2.625 0 1.612-1.226 2.757-2.971 2.757Zm7.993 0c-1.759 0-3.051-1.026-3.051-2.851v-.079c0-.147.12-.267.267-.267h.786c.146 0 .266.12.266.267v.106c0 .986.733 1.599 1.719 1.599.999 0 1.665-.626 1.665-1.479 0-.813-.507-1.252-1.372-1.505l-1.053-.307c-1.132-.333-2.011-1.119-2.011-2.544 0-1.532 1.252-2.558 2.824-2.558 1.598 0 2.797.999 2.797 2.518v.147c0 .146-.12.266-.266.266h-.76c-.146 0-.266-.12-.266-.266v-.134c0-.812-.586-1.305-1.505-1.305-.879 0-1.505.479-1.505 1.292 0 .799.572 1.186 1.278 1.412l1.013.306c1.292.387 2.144 1.173 2.144 2.625 0 1.612-1.225 2.757-2.97 2.757Zm7.939 0c-1.292 0-2.211-.653-2.677-1.572-.4-.732-.453-1.838-.453-3.237 0-1.398.053-2.504.453-3.237.466-.919 1.385-1.572 2.677-1.572s2.211.653 2.678 1.572c.399.733.453 1.839.453 3.237 0 1.399-.054 2.505-.453 3.237-.467.919-1.386 1.572-2.678 1.572Zm-1.811-4.809c0 .973.013 1.945.226 2.478.306.733.906 1.052 1.585 1.052.68 0 1.279-.319 1.585-1.052.214-.533.227-1.505.227-2.478 0-.972-.013-1.945-.227-2.477-.306-.733-.905-1.053-1.585-1.053-.679 0-1.279.32-1.585 1.053-.213.532-.226 1.505-.226 2.477Zm7.846 4.663c-.147 0-.267-.12-.267-.267v-8.792c0-.146.12-.266.267-.266h4.569c.146 0 .266.12.266.266v.733c0 .146-.12.266-.266.266h-3.424c-.08 0-.133.054-.133.134v2.437c0 .08.053.134.133.134h3.291c.146 0 .266.119.266.266v.733c0 .146-.12.266-.266.266h-3.291c-.08 0-.133.053-.133.133v3.69c0 .147-.12.267-.266.267h-.746Zm7.992 0c-.146 0-.266-.12-.266-.267v-8.792c0-.146.12-.266.266-.266h4.569c.147 0 .267.12.267.266v.733c0 .146-.12.266-.267.266h-3.423c-.08 0-.133.054-.133.134v2.437c0 .08.053.134.133.134h3.29c.147 0 .267.119.267.266v.733c0 .146-.12.266-.267.266h-3.29c-.08 0-.133.053-.133.133v3.69c0 .147-.12.267-.267.267h-.746Zm-128.454 15.778c-.2 0-.307-.187-.253-.347l2.371-8.765c.04-.146.146-.213.266-.213h1.172c.12 0 .227.067.267.213l2.371 8.765c.053.16-.053.347-.253.347h-.786c-.12 0-.213-.067-.253-.2l-.546-1.958c-.027-.093-.067-.147-.16-.147h-2.451c-.093 0-.133.054-.16.147l-.546 1.958c-.027.133-.133.2-.253.2h-.786Zm1.918-3.703c-.027.093.027.173.12.173h1.865c.093 0 .146-.08.12-.173l-.946-3.717c-.027-.12-.187-.12-.213 0l-.946 3.717Zm9.098 3.849c-1.758 0-3.05-1.025-3.05-2.85v-.08c0-.147.12-.267.266-.267h.786c.147 0 .266.12.266.267v.106c0 .986.733 1.599 1.719 1.599.999 0 1.665-.626 1.665-1.479 0-.812-.506-1.252-1.372-1.505l-1.052-.306c-1.133-.333-2.012-1.119-2.012-2.545 0-1.532 1.252-2.557 2.824-2.557 1.599 0 2.798.999 2.798 2.517v.147c0 .146-.12.266-.267.266h-.759c-.147 0-.267-.12-.267-.266v-.133c0-.813-.586-1.306-1.505-1.306-.879 0-1.505.48-1.505 1.292 0 .8.573 1.186 1.279 1.412l1.012.307c1.292.386 2.145 1.172 2.145 2.624 0 1.612-1.226 2.757-2.971 2.757Zm7.993 0c-1.759 0-3.051-1.025-3.051-2.85v-.08c0-.147.12-.267.267-.267h.786c.146 0 .266.12.266.267v.106c0 .986.733 1.599 1.719 1.599.999 0 1.665-.626 1.665-1.479 0-.812-.507-1.252-1.372-1.505l-1.053-.306c-1.132-.333-2.011-1.119-2.011-2.545 0-1.532 1.252-2.557 2.824-2.557 1.598 0 2.797.999 2.797 2.517v.147c0 .146-.12.266-.266.266h-.759c-.147 0-.267-.12-.267-.266v-.133c0-.813-.586-1.306-1.505-1.306-.879 0-1.505.48-1.505 1.292 0 .8.572 1.186 1.278 1.412l1.013.307c1.292.386 2.144 1.172 2.144 2.624 0 1.612-1.225 2.757-2.97 2.757Zm7.939 0c-1.292 0-2.211-.652-2.677-1.572-.4-.732-.453-1.838-.453-3.237 0-1.398.053-2.504.453-3.237.466-.919 1.385-1.571 2.677-1.571s2.211.652 2.678 1.571c.399.733.453 1.839.453 3.237 0 1.399-.054 2.505-.453 3.237-.467.92-1.386 1.572-2.678 1.572Zm-1.811-4.809c0 .973.013 1.945.226 2.478.306.733.906 1.053 1.585 1.053.68 0 1.279-.32 1.585-1.053.214-.533.227-1.505.227-2.478 0-.972-.013-1.944-.227-2.477-.306-.733-.905-1.053-1.585-1.053-.679 0-1.279.32-1.585 1.053-.213.533-.226 1.505-.226 2.477Zm10.017 4.809c-1.279 0-2.211-.626-2.678-1.572-.399-.732-.466-1.838-.466-3.237 0-1.398.053-2.504.466-3.237.467-.932 1.399-1.571 2.678-1.571 1.825 0 3.024 1.185 3.024 2.944 0 .146-.12.266-.267.266h-.786c-.146 0-.279-.12-.279-.266 0-.96-.613-1.666-1.692-1.666-.666 0-1.279.32-1.585 1.053-.227.533-.24 1.505-.24 2.477 0 .973 0 1.945.24 2.478.319.72.919 1.053 1.585 1.053 1.079 0 1.692-.693 1.692-1.666 0-.146.133-.266.279-.266h.786c.147 0 .267.12.267.266 0 1.759-1.199 2.944-3.024 2.944Zm5.328-.146c-.146 0-.266-.12-.266-.267v-.746c0-.146.12-.266.266-.266h1.812v-6.767h-1.678c-.147 0-.267-.12-.267-.266v-.746c0-.147.12-.267.267-.267h4.635c.147 0 .267.12.267.267v.746c0 .146-.12.266-.267.266h-1.678v6.767h1.812c.146 0 .266.12.266.266v.746c0 .147-.12.267-.266.267h-4.903Zm8.205-.267v-8.794c0-.069.027-.131.082-.185.054-.054.116-.081.185-.081h4.436c.069 0 .131.027.185.081.055.054.082.116.082.185v.735c0 .07-.027.131-.082.186-.054.054-.116.081-.185.081h-3.304c-.087 0-.13.043-.13.13v2.4c0 .087.043.132.13.137h3.161c.069 0 .131.026.185.078.054.052.082.115.082.188v.729c0 .069-.028.131-.082.185-.054.054-.116.082-.185.082h-3.161c-.087 0-.13.045-.13.136v2.595c0 .087.043.13.13.13h3.33c.069 0 .131.028.185.082.055.054.082.116.082.185v.735c0 .07-.026.131-.078.186-.052.054-.115.081-.189.081h-4.462c-.069 0-.131-.027-.185-.081-.055-.055-.082-.116-.082-.186Zm1.743-9.991 1.015-1.45c.035-.043.077-.09.127-.14.05-.05.122-.075.218-.075h1.054c.086 0 .144.036.172.108.028.071.021.129-.023.172l-1.444 1.489c-.043.044-.089.082-.136.114-.048.033-.135.049-.261.049h-.533c-.087 0-.148-.034-.185-.101-.037-.067-.038-.122-.004-.166Zm8.539 10.404c-1.758 0-3.05-1.025-3.05-2.85v-.08c0-.147.12-.267.266-.267h.786c.147 0 .267.12.267.267v.106c0 .986.732 1.599 1.718 1.599.999 0 1.665-.626 1.665-1.479 0-.812-.506-1.252-1.372-1.505l-1.052-.306c-1.133-.333-2.012-1.119-2.012-2.545 0-1.532 1.252-2.557 2.824-2.557 1.599 0 2.798.999 2.798 2.517v.147c0 .146-.12.266-.267.266h-.759c-.146 0-.266-.12-.266-.266v-.133c0-.813-.586-1.306-1.506-1.306-.879 0-1.505.48-1.505 1.292 0 .8.573 1.186 1.279 1.412l1.012.307c1.292.386 2.145 1.172 2.145 2.624 0 1.612-1.226 2.757-2.971 2.757Z"/>
</svg>
